<svg xmlns="http://www.w3.org/2000/svg" viewBox="0 0 367 72"><g id="Calque_2" data-name="Calque 2"><g id="Calque_1-2" data-name="Calque 1"><g id="Texecom-Logo"><path id="Tracé_15" data-name="Tracé 15" d="M2.85,0,0,17.44H20.22L12.27,70.28H32.82l7.85-52.84H60.44L63.38,0Z"/><path id="Tracé_16" data-name="Tracé 16" d="M74.21,40.59c-.09-5.58-2.87-8.72-7.62-8.72s-8,3.14-8.79,8.72ZM90.09,55.88c-3,10-12.2,15.65-25.84,15.65-16.32,0-25.92-9-25.92-22.58,0-17.54,11-28.6,27.9-28.6S92,29.08,92,45.36A42.85,42.85,0,0,1,91.71,50H57v.81c0,5.85,2.87,8.9,8.25,8.9,3.68,0,6.19-1.44,7-3.87Z"/><path id="Tracé_17" data-name="Tracé 17" d="M235.49,51.76c-2.6,13-11.76,20.15-26,20.15-16.06,0-25.48-9.09-25.48-22.76,0-17,10.85-28.24,27.72-28.24,15.43,0,24.31,7.38,24.58,19.61H218.52c-.08-4.41-2.41-6.75-6.63-6.75-5.74,0-9.33,5.85-9.33,15.74,0,6.3,2.42,9.45,7.18,9.45,3.85,0,7-2.79,7.71-7.2Z"/><path id="Tracé_18" data-name="Tracé 18" d="M253.52,49.26c0,6.21,2.25,9.27,7.09,9.27,5.56,0,9.24-5.85,9.24-15.38q0-9.72-7-9.72c-5.83,0-9.33,5.58-9.33,15.83m9.78-28.78c15.88,0,25.39,9.08,25.39,23,0,17.54-10.58,28.24-28.35,28.24-16.15,0-25.66-9.27-25.66-23.21,0-17,11.22-28.06,28.62-28.06"/><path id="Tracé_19" data-name="Tracé 19" d="M292.08,22.29h16.6l-1,6.2c4.4-5.21,9.33-7.74,15.34-7.74,6.55,0,10.68,2.88,12.38,8.73,4.67-5.76,10.15-8.73,16.42-8.73,9.33,0,15.17,5.67,15.17,14.85a55.38,55.38,0,0,1-.54,6.3L362.6,70H344.66l3.68-26.62a21.71,21.71,0,0,0,.27-3.42c0-2.88-1.62-4.5-4.85-4.5-4.39,0-6.28,2.88-7.18,8.72L332.73,70H314.87l3.68-26.8a22.3,22.3,0,0,0,.27-3.06c0-3.15-1.7-4.67-5.21-4.67-4,0-5.92,2.6-6.81,8.36L302.85,70H285Z"/><path id="Tracé_20" data-name="Tracé 20" d="M166.68,41.06c-.1-5.58-2.88-8.73-7.63-8.73s-8,3.15-8.79,8.73Zm15.88,15.28c-3.05,10-12.2,15.66-25.84,15.66-16.33,0-25.93-9-25.93-22.58,0-17.54,11-28.6,27.9-28.6s25.75,8.72,25.75,25a40.54,40.54,0,0,1-.27,4.68H149.45v.81c0,5.84,2.87,8.9,8.25,8.9,3.68,0,6.19-1.44,7-3.87Z"/><path id="Tracé_21" data-name="Tracé 21" d="M142,22.43H121.56l-8,10.22-6.08-10.22H86.93L102.06,45.7,81.68,70.28h20.61l8.8-11.49,6.73,11.49h19.39L121.87,46Z"/></g></g></g></svg>